<svg xmlns="http://www.w3.org/2000/svg" viewBox="0 0 402 37">
  <g fill-rule="nonzero" fill="none">
    <path d="M54.7 26.8v7.9c1.3.6 2.8 1.1 4.5 1.4a29.7 29.7 0 0010.8 0 13 13 0 004.5-1.8 9 9 0 004.1-8.1 8.7 8.7 0 00-2.5-6.6c-.8-.8-1.7-1.6-2.8-2.2-1.1-.7-2.4-1.3-3.8-1.9a47.5 47.5 0 01-4.8-2.5c-.6-.4-1-.8-1.4-1.3-.3-.4-.4-1-.4-1.5 0-.6.1-1 .4-1.5.3-.4.7-.8 1.2-1.1.5-.3 1-.6 1.8-.7.8-.2 1.6-.3 2.5-.3A15.5 15.5 0 0177 9.1V1.8a19 19 0 00-4-1 31.7 31.7 0 00-10 .2c-1.7.4-3.2 1-4.4 1.9-1.3.8-2.3 1.9-3 3.2a9.5 9.5 0 00-1.1 4.7c0 2.3.6 4.3 2 6 1.3 1.6 3.4 3 6.1 4.1a82.7 82.7 0 015.4 2.7c.7.4 1.2 1 1.6 1.4a3 3 0 01.2 3.3c-.2.4-.6.8-1 1.1a6 6 0 01-2 .7c-.7.2-1.5.3-2.5.3a14.8 14.8 0 01-9.7-3.6zM9 36h-8V1h8v35zm39.4 0h-8L26 14l-1.7-2.9H24l.2 5.7V36h-7.5V1h8.5l14 21.3 1.7 2.9-.1-4.8V1h7.4v35zM109 7.4H99V36h-7.8V7.4H81V1H109v6.4zM136 36h8.5L132 1h-9.4L110 36h8.5l2.5-7.8h12.5l2.5 7.8zm44.4 0h-8L158 14l-1.7-2.9h-.1l.2 5.7V36h-7.5V1h8.5l13.9 21.3 1.8 2.9-.1-4.8V1h7.4v35zM203 7.4h10V1h-27.8v6.4h10V36h7.8V7.4zm-75.1 3l3.8 11.8h-9l3.8-11.9.6-3h.2c.1 1.2.3 2.2.6 3z" fill="#171F49"/>
    <path d="M318 9.5a31.4 31.4 0 00-3.5-1.5 17.2 17.2 0 00-4.6-.7c-2.2 0-4 .4-5.7 1a12.1 12.1 0 00-6.6 7.2c-.5 1.7-.8 3.4-.8 5.1 0 1.5.2 2.8.6 4a7.7 7.7 0 004.9 4.6c1.1.4 2.4.6 3.8.6a16.3 16.3 0 006.7-1.4l1.8-.8-1.6 7.5a27.3 27.3 0 01-9 1.6c-2.4 0-4.6-.4-6.5-1.2-2-.7-3.6-1.7-5-3-1.3-1.4-2.3-3-3-4.9-.7-1.8-1-3.9-1-6.2a24.6 24.6 0 012.3-10.3 19 19 0 017.2-7.7c1.6-1 3.5-1.7 5.5-2.2a27.4 27.4 0 0116 .8L318 9.5zm-59.5 4.4c.5-1.2.8-2.5.8-4 0-1.2-.2-2.3-.6-3.4-.5-1-1.1-2-2-2.8-.9-.9-2-1.5-3.5-2-1.4-.5-3.2-.7-5.2-.7h-12l-7.4 35h8l2.8-13.4h1.4a4 4 0 013 1.1c.7.8 1.2 1.8 1.5 3.3l1.9 9h8.5l-2.5-10.1a9.3 9.3 0 00-1.6-3.6c-.7-1-1.6-1.6-2.6-1.9 1.4-.3 2.8-.7 4-1.2 1.2-.6 2.3-1.3 3.3-2.2.9-.8 1.6-1.9 2.2-3zm16.1-6.5H287l1.3-6.4h-20.1l-7.5 35h21l1.4-6.4h-13l1.6-7.9H283l1.4-6.4H273l1.6-7.9zm66 20.8l1 7.8h8.1l-5-35h-9.4l-20.2 35h9l4-7.8h12.6zM375 36h-21l7.5-35h8l-6 28.5h12.9l-1.4 6.5zm4.7 0h20.9l1.4-6.5h-13L395 1h-8l-7.4 35zm-130-28c.9.8 1.3 1.8 1.3 3.2 0 .7-.2 1.4-.5 2-.2.7-.7 1.3-1.2 1.8-.6.5-1.3.9-2.2 1.2-.9.3-2 .4-3.1.4h-3.2l2-9.7h3.4c1.6 0 2.8.4 3.6 1.1zm89.2 1.5v.8l1.3 11.9h-9l6.4-12a21 21 0 001.2-3h.2a7.5 7.5 0 00-.1 1.4v.9z" fill="#FC020D"/>
  </g>
</svg>
